<svg width="19" height="18" viewBox="0 0 19 18" fill="none" xmlns="http://www.w3.org/2000/svg">
<path d="M2.5 8C1.95 8 1.47917 7.80417 1.0875 7.4125C0.695833 7.02083 0.5 6.55 0.5 6V2C0.5 1.45 0.695833 0.979167 1.0875 0.5875C1.47917 0.195833 1.95 0 2.5 0H6.5C7.05 0 7.52083 0.195833 7.9125 0.5875C8.30417 0.979167 8.5 1.45 8.5 2V6C8.5 6.55 8.30417 7.02083 7.9125 7.4125C7.52083 7.80417 7.05 8 6.5 8H2.5ZM2.5 18C1.95 18 1.47917 17.8042 1.0875 17.4125C0.695833 17.0208 0.5 16.55 0.5 16V12C0.5 11.45 0.695833 10.9792 1.0875 10.5875C1.47917 10.1958 1.95 10 2.5 10H6.5C7.05 10 7.52083 10.1958 7.9125 10.5875C8.30417 10.9792 8.5 11.45 8.5 12V16C8.5 16.55 8.30417 17.0208 7.9125 17.4125C7.52083 17.8042 7.05 18 6.5 18H2.5ZM12.5 8C11.95 8 11.4792 7.80417 11.0875 7.4125C10.6958 7.02083 10.5 6.55 10.5 6V2C10.5 1.45 10.6958 0.979167 11.0875 0.5875C11.4792 0.195833 11.95 0 12.5 0H16.5C17.05 0 17.5208 0.195833 17.9125 0.5875C18.3042 0.979167 18.5 1.45 18.5 2V6C18.5 6.55 18.3042 7.02083 17.9125 7.4125C17.5208 7.80417 17.05 8 16.5 8H12.5ZM12.5 18C11.95 18 11.4792 17.8042 11.0875 17.4125C10.6958 17.0208 10.5 16.55 10.5 16V12C10.5 11.45 10.6958 10.9792 11.0875 10.5875C11.4792 10.1958 11.95 10 12.5 10H16.5C17.05 10 17.5208 10.1958 17.9125 10.5875C18.3042 10.9792 18.5 11.45 18.5 12V16C18.5 16.55 18.3042 17.0208 17.9125 17.4125C17.5208 17.8042 17.05 18 16.5 18H12.5ZM2.5 6H6.5V2H2.5V6ZM12.5 6H16.5V2H12.5V6ZM12.5 16H16.5V12H12.5V16ZM2.5 16H6.5V12H2.5V16Z" fill="white"/>
</svg>
